<svg width="87" height="87" viewBox="0 0 87 87" fill="none" xmlns="http://www.w3.org/2000/svg">
<path d="M87 43.5C87 67.5244 67.5244 87 43.5 87C19.4756 87 0 67.5244 0 43.5C0 19.4756 19.4756 0 43.5 0C67.5244 0 87 19.4756 87 43.5Z" fill="#0FC46D"/>
<path d="M69.7305 51.0972C69.7305 51.92 69.5248 52.5372 68.9076 53.1543L56.1533 65.9086C55.5362 66.5257 54.919 66.7314 54.0962 66.7314H51.4219C50.7019 66.7314 50.1876 66.2172 50.1876 65.4972V57.9886C50.1876 57.2686 50.7019 56.7543 51.4219 56.7543H56.6676C58.6219 56.7543 59.7533 55.6229 59.7533 53.6686V35.5657L53.2733 29.1886H52.039C50.0848 29.1886 49.0562 30.32 49.0562 32.2743L49.0562 50.6857C49.0562 51.6114 48.8505 52.1257 48.2333 52.7429L35.479 65.4972C34.759 66.2172 34.2447 66.4229 33.4219 66.4229H33.2162C32.4962 66.4229 32.0847 66.2172 31.3647 65.4972L18.6105 52.7429C17.9933 52.1257 17.7876 51.6114 17.7876 50.6857V35.9772C17.7876 35.0514 17.9933 34.5372 18.6105 33.92L31.3648 21.1657C32.0848 20.4457 32.599 20.24 33.4219 20.24H36.0962C36.8162 20.24 37.3305 20.7543 37.3305 21.4743V28.9829C37.3305 29.7029 36.8162 30.2172 36.0962 30.2172H30.8505C28.8962 30.2172 27.7648 31.3486 27.7648 33.3029L27.7648 53.36C27.7648 55.3143 28.8962 56.4457 30.8505 56.4457L35.9933 56.4457C37.9476 56.4457 39.079 55.3143 39.079 53.36L39.079 34.9486C39.079 34.0229 39.2848 33.5086 39.9019 32.8914L52.6562 20.1372C53.3762 19.4172 53.8905 19.2114 54.7133 19.2114H54.8162C55.4333 19.2114 55.8448 19.4172 56.4619 20.0343L68.9076 32.48C69.5248 33.0972 69.7305 33.7143 69.7305 34.5372V51.0972Z" fill="black"/>
</svg>
